<?xml version="1.0" encoding="UTF-8" standalone="no"?>
<!-- Created with Inkscape (http://www.inkscape.org/) -->

<svg
   xmlns:dc="http://purl.org/dc/elements/1.1/"
   xmlns:cc="http://creativecommons.org/ns#"
   xmlns:rdf="http://www.w3.org/1999/02/22-rdf-syntax-ns#"
   xmlns:svg="http://www.w3.org/2000/svg"
   xmlns="http://www.w3.org/2000/svg"
   xmlns:sodipodi="http://sodipodi.sourceforge.net/DTD/sodipodi-0.dtd"
   xmlns:inkscape="http://www.inkscape.org/namespaces/inkscape"
   width="256"
   height="256"
   viewBox="0 0 256 256.00001"
   id="svg4246"
   version="1.1"
   inkscape:version="0.91 r13725"
   style="shape-rendering:geometricPrecision"
   sodipodi:docname="mylogo-hi.svg"
   inkscape:export-filename="/home/eri/mylogo.svg.png"
   inkscape:export-xdpi="300"
   inkscape:export-ydpi="300">
  <defs
     id="defs4248" />
  <sodipodi:namedview
     id="base"
     pagecolor="#ffffff"
     bordercolor="#666666"
     borderopacity="1.0"
     inkscape:pageopacity="0"
     inkscape:pageshadow="2"
     inkscape:zoom="2"
     inkscape:cx="26.11687"
     inkscape:cy="176.51603"
     inkscape:document-units="px"
     inkscape:current-layer="logo"
     showgrid="false"
     units="px"
     inkscape:showpageshadow="false"
     showborder="true"
     borderlayer="false"
     inkscape:object-nodes="true"
     inkscape:snap-grids="true"
     inkscape:window-width="1280"
     inkscape:window-height="969"
     inkscape:window-x="0"
     inkscape:window-y="27"
     inkscape:window-maximized="1">
    <inkscape:grid
       type="axonomgrid"
       id="grid4806"
       units="px"
       empspacing="0"
       gridanglex="60"
       gridanglez="60"
       originx="128"
       originy="2.0000001"
       spacingy="56.000002"
       enabled="false"
       visible="true" />
    <inkscape:grid
       type="axonomgrid"
       id="grid5181"
       units="px"
       empspacing="3"
       gridanglex="56.3"
       gridanglez="56.3"
       originx="128"
       originy="2.0000001"
       spacingy="56.000002"
       enabled="true"
       visible="true" />
    <inkscape:grid
       type="xygrid"
       id="grid5206"
       empspacing="16"
       enabled="true"
       visible="false" />
  </sodipodi:namedview>
  <metadata
     id="metadata4251">
    <rdf:RDF>
      <cc:Work
         rdf:about="">
        <dc:format>image/svg+xml</dc:format>
        <dc:type
           rdf:resource="http://purl.org/dc/dcmitype/StillImage" />
        <dc:title />
        <dc:creator>
          <cc:Agent>
            <dc:title>eri</dc:title>
          </cc:Agent>
        </dc:creator>
      </cc:Work>
    </rdf:RDF>
  </metadata>
  <g
     inkscape:label="Layer 1"
     inkscape:groupmode="layer"
     id="logo"
     transform="translate(0,-796.3622)">
    <path
       style="fill:#382e37"
       d="m 16,882.42528 c -0.01167,-33.66542 55.978964,-84.06308 55.978964,-84.06308 0,0 22.365334,84 56.021036,84 33.6557,0 56.02104,-84 56.02104,-84 0,0 55.97313,50.30649 55.97896,83.93692 0.0117,67.32112 -112,168.06308 -112,168.06308 0,0 -111.976682,-100.65079 -112,-167.93692 z"
       id="ears"
       inkscape:connector-curvature="0"
       sodipodi:nodetypes="acacsca" />
    <path
       style="fill:#f04f18"
       d="m 221.36839,910.3622 c 0,-22.43713 -37.34735,-56 -37.34735,-56 0,0 -21.8087,86 -56.02104,86 -34.212338,0 -56.021036,-86 -56.021036,-86 0,0 -37.347357,33.56287 -37.347357,56 0,56.09284 93.368393,140 93.368393,140 0,0 93.36839,-83.90716 93.36839,-140 z"
       id="nose"
       inkscape:connector-curvature="0"
       sodipodi:nodetypes="acacaca" />
    <path
       style="fill:#e8e8e8;fill-opacity:1"
       d="m 202.69471,938.3622 c 0,-11.21857 -18.67367,-28 -18.67367,-28 0,0 -22.08752,85 -56.02104,85 -33.933524,0 -56.021036,-85 -56.021036,-85 0,0 -18.673679,16.78143 -18.673679,28 0,44.87427 74.694715,112 74.694715,112 0,0 74.69471,-67.12573 74.69471,-112 z"
       id="beard"
       inkscape:connector-curvature="0"
       sodipodi:nodetypes="scacacs" />
  </g>
</svg>
